<svg width="900" height="260" viewBox="0 0 900 260" xmlns="http://www.w3.org/2000/svg">
  <defs>
    <linearGradient id="bg" x1="0%" y1="0%" x2="100%" y2="100%">
      <stop offset="0%" stop-color="#8b6cff"/>
      <stop offset="100%" stop-color="#1f2937"/>
    </linearGradient>
    <clipPath id="round">
      <rect width="900" height="260" rx="22" ry="22"/>
    </clipPath>
  </defs>

  <g clip-path="url(#round)">
    <rect width="900" height="260" fill="url(#bg)"/>
    <path d="M0,150 C150,120 300,175 450,150 C600,125 750,175 900,150 L900,260 L0,260 Z" fill="#12141c" opacity="0.30"/>
    <path d="M0,165 C150,140 300,195 450,165 C600,140 750,195 900,165 L900,260 L0,260 Z" fill="#12141c" opacity="0.45"/>

    <text x="450" y="70" font-family="Arial, Helvetica, sans-serif" font-size="34" font-weight="700" fill="#ffffff" text-anchor="middle" letter-spacing="0.5">NITYA THUMMAR</text>
    <text x="450" y="100" font-family="Arial, Helvetica, sans-serif" font-size="15" fill="#e9e4ff" text-anchor="middle">Aspiring Robotics &amp; Automation Engineer — Python · C++ · Embedded Systems</text>

    <g font-family="Arial, Helvetica, sans-serif" font-size="11.5" font-weight="700" fill="#ffffff">
      <rect x="152" y="148" width="210" height="30" rx="15" fill="rgba(255,255,255,0.16)" stroke="rgba(255,255,255,0.4)"/>
      <text x="257" y="168" text-anchor="middle">⚙ OPEN TO INTERNSHIPS</text>

      <rect x="378" y="148" width="168" height="30" rx="15" fill="rgba(255,255,255,0.16)" stroke="rgba(255,255,255,0.4)"/>
      <text x="462" y="168" text-anchor="middle">📍 AHMEDABAD, INDIA</text>

      <rect x="562" y="148" width="186" height="30" rx="15" fill="rgba(255,255,255,0.16)" stroke="rgba(255,255,255,0.4)"/>
      <text x="655" y="168" text-anchor="middle">🎓 GEC GANDHINAGAR</text>
    </g>
  </g>
</svg>
